# xmcd
#
# Track frame offsets:
#	150
#	2460
#	15770
#	16812
#	31550
#	32410
#	46437
#	47510
#	64237
#	66800
#	76942
#	78312
#	93040
#	94929
#	108380
#	109772
#	122472
#	124897
#	136705
#	137690
#	155059
#	156157
#	167202
#	167955
#	184780
#	188107
#	200722
#	202067
#	220705
#	221437
#	233827
#	236900
#	249577
#	250262
#	264112
#	265115
#	280867
#
# Disc length: 3837
#
# Revision: 3
# Processed by: cddbd v1.5.1PL0 Copyright (c) Steve Scherf et al.
# Submitted via: jetAudio 5
# Normalized: r2:TDELIM( - )
#
DISCID=ec0efb25
DTITLE=Various Artist - Asa Branca - Cowboy Contry
DYEAR=1900
DGENRE=
TTITLE0=Asa Branca - Locução (1)
TTITLE1=Jack James - Mrs. Robinson
TTITLE2=Asa Branca - Locução (2)
TTITLE3=Cindy Ray - If You Can't Give Love
TTITLE4=Asa Branca - Locução (3)
TTITLE5=Shelby Lynne - Slow Me Down
TTITLE6=Asa Branca - Locução (4)
TTITLE7=Clair Jones - Wonderwall
TTITLE8=Asa Branca - Locução (5)
TTITLE9=Larry Lowman - Jambalaya
TTITLE10=Asa Branca - Locução (6)
TTITLE11=Maddie Rock - How Sweet It Is
TTITLE12=Asa Branca - Locução (7)
TTITLE13=Cindy Ray - I Drove All Night
TTITLE14=Asa Branca - Locução (8)
TTITLE15=Ralph Jones - Please Don't Go
TTITLE16=Asa Branca - Locução (9)
TTITLE17=Boro Boys - The Fever
TTITLE18=Asa Branca - Locução (10)
TTITLE19=Mick One - Losing My Religion
TTITLE20=Asa Branca - Locução (11)
TTITLE21=Country Connetion - Calling Baton Rouge
TTITLE22=Asa Branca - Locução (12)
TTITLE23=Al Mighty - Who The Fuck Is Alice
TTITLE24=Asa Branca - Locução (13)
TTITLE25=Sam James - You Shook Me All Nite Long
TTITLE26=Asa Branca - Locução (14)
TTITLE27=Samantha Blue - Who's Bed Have Your Boots Been Under
TTITLE28=Asa Branca - Locução (15)
TTITLE29=One Way Band - Vidalia
TTITLE30=Asa Branca - Locução
TTITLE31=Rich McReady - Thinkin' Strait
TTITLE32=Asa Branca - Locução (16)
TTITLE33=Gary Right - Fast As You
TTITLE34=Asa Branca - Locução (17)
TTITLE35=Chalie Ford - When A Woman Loves A Man
TTITLE36=Asa Branca - Oração
EXTD=
EXTT0=
EXTT1=
EXTT2=
EXTT3=
EXTT4=
EXTT5=
EXTT6=
EXTT7=
EXTT8=
EXTT9=
EXTT10=
EXTT11=
EXTT12=
EXTT13=
EXTT14=
EXTT15=
EXTT16=
EXTT17=
EXTT18=
EXTT19=
EXTT20=
EXTT21=
EXTT22=
EXTT23=
EXTT24=
EXTT25=
EXTT26=
EXTT27=
EXTT28=
EXTT29=
EXTT30=
EXTT31=
EXTT32=
EXTT33=
EXTT34=
EXTT35=
EXTT36=
PLAYORDER=
